<svg xmlns="http://www.w3.org/2000/svg" viewBox="0 0 51.5 51.52"><defs><style>.cls-1{fill:none;stroke:#fff;stroke-miterlimit:10;stroke-width:1.5px;}</style></defs><title>darkerSVG</title><g id="Layer_2" data-name="Layer 2"><g id="Walking_CrossHair" data-name="Walking CrossHair"><path class="cls-1" d="M43.46,8.08A24.68,24.68,0,0,0,25.85.75h-.2a25,25,0,0,0-24.9,25,25,25,0,0,0,24.9,25h.2a25,25,0,0,0,24.9-25A24.89,24.89,0,0,0,43.46,8.08ZM41.37,41.36a21.75,21.75,0,0,1-15.52,6.46h-.2a22,22,0,0,1-22-22.06,22,22,0,0,1,22-22.07h.2a22,22,0,0,1,22,22.07A22,22,0,0,1,41.37,41.36Z"/></g></g></svg>