<svg xmlns="http://www.w3.org/2000/svg" viewBox="0 0 647.63 753.27"><defs><style>.cls-1{fill:#fff;}</style></defs><title>healthPack</title><g id="Layer_2" data-name="Layer 2"><g id="Layer_1-2" data-name="Layer 1"><path class="cls-1" d="M614.21,252.56c-2.27-5.36-4.3-9.4-.81-16.07,5.76-11-.19-21-12.35-28.44-3.21-2-5.37-7.56-5.83-11.72-2-18.13-2.63-36.42-4.78-54.52-3.37-28.42-7-57.17-22.44-82C544.57,22.05,507.43,6.64,465.32,4.86Q356.54.27,247.61,0C214.07-.1,180.1,1.9,147.06,7.36c-60.49,10-93.15,46.83-99.71,107.56-3,28-5.27,56-8,84.89-4.26.92-9.68,1.79-14.91,3.3-10.91,3.14-17.31,9.37-17.78,21.94C5.15,266.72,2.6,308.35.81,350,0,368.25.05,386.53,0,404.79c0,6.68,1.7,12.34,8.85,9.09l4.74,12.57c4.47-2.44,9.93-4,13.13-7.57,2.91-3.25,4.2-8.59,4.74-13.19,1.78-15.39,3.67-30.84,4.11-46.31.65-23,0-46.09.07-69.14,0-4,.4-8,.61-12H38.9c.47,2.43,1.3,4.86,1.37,7.3.84,30.92,2.29,61.85,2.19,92.78-.2,61.8-1.54,123.6-1.81,185.4-.09,21.75,1,43.55,2.57,65.24,2.4,32.92,11.89,63.18,36.8,86.6,23,21.66,52.25,27.5,82.08,30.32,103,9.77,206.22,9.18,309.26,2.26,55-3.7,105.35-36.69,113.87-105.21,3.74-30.1,6.17-60.51,6.9-90.83,1.9-78.89,2.51-157.8,3.71-236.71.06-3.69.87-7.38,1.33-11.07l3.63.37v92.76l3.88-.15c2.43-42.71,4.05-85.43-4.23-128.16,14.7,7.2,7,19.36,7.35,29.59l4.37.63,6.11-24L643.72,334l3.91-1.8C636.51,305.64,625.45,279.06,614.21,252.56ZM36.9,264c-6.49-4.69-5.21-9.58-3.16-16.82,2.88-10.18,1.65-21.53,3.16-32.47ZM371.6,243.1l-.06.93-3.73-.6C369.07,243.31,370.33,243.21,371.6,243.1Zm-4,.35,1,3.52-.36.09c-.22-1.2-.43-2.4-.65-3.6Zm-42.22,16.1.14-4.15,7.21,6.34-7.38-2.05Zm2.18,4.15-1.06.58a4.08,4.08,0,0,1,.38-.85A3.59,3.59,0,0,1,327.52,263.7Zm16.75,110-.08-.18-1.81.14v37.13l-45.93,2c-10.9.56-15.12-3.5-13.79-14.65,1-8.13.19-16.47.19-25.76H245.19c-1.05-15.87-2.52-30.76-2.58-45.65,0-2.71,5.54-7.44,8.89-7.79,9.91-1.05,20-.37,29.74-.37,0-12.53.82-24.12-.26-35.54-.84-8.93,4.67-9.73,10.41-10.48,4.11-.53,8.42.23,12.62.62,10.43,1,18.6-1.49,21.15-12.81.42,1.31.84,2.62,1.25,3.93l-.45.24,7.21-2.38.22.19,8.06,4.28c0,11-.38,22.73.13,34.41.37,8.52,6.66,7.69,13,7.44,7.11-.28,15.76-5.06,20.73,5.44-.89,11.36,0,60.45,0,60.45ZM547,156.79c-.13.44-.26.89-.48,1.62a4.88,4.88,0,0,1-.28-1.35C546.25,156.94,546.73,156.88,547,156.79ZM535.3,718.47l-4.12-1.7c.35-5.7,0-11.61,1.6-16.92.37-1.23,8.13.84,11.38-.8,6.33-3.19,11.88-7.93,17.75-12l1.7,1.09Zm66.53-481.54c-4.32-16.2-4.32-16.2.38-21.89C612.69,222.24,612.59,227.49,601.83,236.93Z"/></g></g></svg>