<svg xmlns="http://www.w3.org/2000/svg" viewBox="0 0 515.35 515.54"><defs><style>.cls-1{fill:#fff;}</style></defs><title>interact-crosshair</title><g id="Layer_2" data-name="Layer 2"><g id="Walking_CrossHair" data-name="Walking CrossHair"><path class="cls-1" d="M258.65,515.54c-.33,0-.65,0-1,0h0c-.32,0-.64,0-1,0A257.25,257.25,0,0,1,0,257.77,257.25,257.25,0,0,1,256.7,0c.33,0,.65,0,1,0h0c.32,0,.64,0,1,0a257.25,257.25,0,0,1,256.7,257.77,257.25,257.25,0,0,1-256.7,257.77Zm-1-6,.41,0,.56,0a251.24,251.24,0,0,0,250.7-251.77A251.24,251.24,0,0,0,258.65,6a5.25,5.25,0,0,0-.56,0l-.41,0-.42,0a5.25,5.25,0,0,0-.56,0A251.24,251.24,0,0,0,6,257.77,251.24,251.24,0,0,0,256.7,509.54l.56,0Zm0-23.89-.41,0-.57,0A227.23,227.23,0,0,1,30,257.77,227.23,227.23,0,0,1,256.7,30a4.89,4.89,0,0,0,.54,0l.44,0,.43,0,.54,0a227.23,227.23,0,0,1,226.7,227.77,226.82,226.82,0,0,1-66.42,161.08l-2.12-2.12,2.12,2.12a224.65,224.65,0,0,1-160.28,66.69l-.57,0Zm0-449.64h0c-.32,0-.64,0-1,0A221.24,221.24,0,0,0,36,257.77,221.23,221.23,0,0,0,256.7,479.54c.33,0,.65,0,1,0s.64,0,1,0a221.23,221.23,0,0,0,220.7-221.77A221.24,221.24,0,0,0,258.65,36c-.32,0-.64,0-1,0Z"/></g></g></svg>