<svg xmlns="http://www.w3.org/2000/svg" viewBox="0 0 582.04 741.76"><defs><style>.cls-1{fill:#fff;}</style></defs><title>key</title><g id="Layer_2" data-name="Layer 2"><g id="Layer_1-2" data-name="Layer 1"><path class="cls-1" d="M578.05,117.1C565.66,72,536.16,39.19,495.21,16.88,468.17,2.15,438.87-1.34,408.64.42c-2.54.15-5.26.16-7.55,1.08-9.94,4-20.19,7.51-29.52,12.68C340.24,31.52,324.77,58.69,324,94.36c-.4,19.55,5.73,37.1,16.14,53.49a183.59,183.59,0,0,1,12.55,23.53c5.57,12.45,4.66,24.73-3,36.26-3,4.47-6,8.89-9,13.37a31.47,31.47,0,0,0-1.62,3.17c9.24-9.34,15.71-20.81,20.54-36.6a31.93,31.93,0,0,1-1.61,17.14c-4.13,11.84-11.13,22.06-19.23,31.35-36.59,42-69.6,86.85-104.34,130.32a11.36,11.36,0,0,1-2.32,2.27c7.55-15.39,19.8-27.36,29.82-41-11,8.56-17.16,21.3-27,30.86,20.35-29.58,43.87-56.71,65.85-85.05-3.85,9.91-12.18,16.71-17.75,25.42l.85.67,43.53-54.88-.9-.88-11.48,12.3c-.28-.22-.56-.44-.83-.67l11.81-15.65a63.27,63.27,0,0,0-4.52,4.6c-17.78,21.88-35.82,43.55-53.19,65.75-32.12,41-63.86,82.36-95.67,123.64-2.46,3.2-5.09,5.18-9.25,5.53-11.85,1-18.26,8.56-21.21,19.25-1.54,5.59-2,11.51-2.59,17.32-.23,2.32-.91,3.44-3.14,4.08a16.44,16.44,0,0,0-10.76,8.68c-1,2-.8,3.11.9,4.21,2.15,1.41,2.16,2.87.44,4.76-2.29,2.52-4.45,5.19-6.53,7.89q-37.89,49.15-75.72,98.33Q23,632.15,1.32,660.47c-.82,1.08-1.66,3.12-1.18,4,4.66,9.11,9.58,18.1,14.49,27.09.44.8,1.2,1.78,2,2,9.35,2.15,18.72,4.17,27.09,6L72,662.12l102.55,79.64,32.52-42.2L161.3,663.71c-3.88,5-7.57,9.7-11.37,14.55l8.19,6.71c-3.59,6.13-5,6.43-10.15,2.41l-.87-.67-22.91-18.14,4.81-5.88,12.31,9.45,11.93-15.31-51.18-40.31,11.33-15.12L165,641.9c4-5.17,7.76-10,11.66-15.07l-12.33-9.67,4.58-5.7,29.19,22.83c-1.85,2.32-3.47,4.34-5.15,6.42l-8.59-6.45L173,648.78l45.54,35.8c13.22-16.91,26.49-33.9,40-51.15-32.43-29.13-68.63-53.14-101.87-81l17.35-24c1.78,1.64,3.08,2.86,4.41,4,2.74,2.43,4.07,2.3,5.29-1.19,2.2-6.27,4-12.67,6.14-19.56.16,0,1.22-.14,2.29-.22,14.35-1.17,25.33-5.67,27.46-24.94A28.39,28.39,0,0,1,227,470.14c2.62-2.9,5.22-5.84,7.54-9q60-80.88,119.83-161.83,19.37-26.19,38.55-52.53c11.61-15.9,26.75-21.05,45.67-15.52,7.36,2.16,14.83,4,22.29,5.81,13.58,3.34,27.24,5.74,41.27,2.91C551,230.17,595.88,182,578.05,117.1Zm-69.53,89.33c-7.08,1.14-16.11-.17-20.9-3,34.15,8.59,64.21-22.7,58.23-48.37-1.78,6.46.61,13.41-4.35,18.36.69-5.76,1.37-11.41,2-17.07l-1.55-.26c-.25,1.28-.55,2.56-.74,3.86-.2,1.45-.31,2.91-.43,4.37-1.87,22.53-24.51,38.46-46.3,32.52a26,26,0,0,1-4.9-2c18.81,3.57,33.93-1.88,40.31-14.7-4.64,4.89-9.57,9.29-16.28,11.25-15.81,4.61-32.25-2.16-41-17-2.39-4.05-4-4.44-8.12-2a8.78,8.78,0,0,0-1.79,1.27c-10.92,10.86-31.7,11.27-46.8-.55-16.16-12.66-20.35-29.41-12.14-50.94-2.6-1.48-5.13-3.56-8-4.45-13.23-4.06-20.95-12.94-22.42-26.46-1.55-14.19,4-25.83,15.53-34.28,9.46-6.91,19.49-7.57,29.88-1.89a48.05,48.05,0,0,1,19.07,18.09c6-2.26,11.86-4.71,17.85-6.64,28.92-9.31,51.91,14.77,50.52,39.2-.36,6.23-2.28,12.37-3.51,18.67,2.43.72,5.4,1.41,8.22,2.48,15.6,5.9,25.81,20.65,24.66,36.47-.35,4.73-2.52,9.32-3.85,14,12.82-16.22,6-41.41-13.77-50.53-2.54-1.17-5.18-2.11-8.76-3.55,4.49-2.47,8.33-4.69,12.3-6.64.71-.34,2.09.3,3,.8,18,10,27.3,28.38,23.93,47.37C544.57,186.36,528.44,203.22,508.52,206.43Z"/></g></g></svg>