<svg xmlns="http://www.w3.org/2000/svg" viewBox="0 0 730.63 599.05"><defs><style>.cls-1{fill:#fff;}</style></defs><title>newCompass</title><g id="Layer_2" data-name="Layer 2"><g id="Layer_2-2" data-name="Layer 2"><path class="cls-1" d="M729.63,250.78a224,224,0,0,0-18-67.57c-12.41-27.64-30.13-51.55-51.27-73.08a80,80,0,0,1-5.11-6.56c4.45-1.53,7.67-2.64,10.9-3.73C676.63,96.25,686.18,91,694,83a38.34,38.34,0,0,0,4.51-48.79A60.82,60.82,0,0,0,675.92,14C645.56-1.92,614.08-4.41,581.84,7.31c-12.16,4.42-22.59,11.6-29.13,23.4-3.76,6.78-4.27,6.69-11.82,4.14-13.46-4.56-26.86-9.36-40.53-13.18a465.35,465.35,0,0,0-95-15.74,475.19,475.19,0,0,0-76.21.86c-46.91,4.45-92.46,14.59-136.28,32.49C153,55.57,116.29,76.93,84.46,105.91c-32.9,30-58.57,65.13-73.14,107.73A207.89,207.89,0,0,0,.23,271.45c-1.2,25.41,2.34,50.2,9.33,74.6,2.88,10.06,4.89,20.38,8,30.35,4.7,15,9.09,30.13,15.32,44.48,13.46,31,33.35,57.61,58,80.85A317.49,317.49,0,0,0,168,555.28a404.38,404.38,0,0,0,114.14,37c38.56,6.42,77.28,8.59,116.24,5.11,33.12-3,65.71-8.87,97.47-18.93a467.27,467.27,0,0,0,56.94-22.59,346.75,346.75,0,0,0,49.86-28.65A301.09,301.09,0,0,0,664,471.72c18.86-22.7,32.9-48,43.49-75.42,6.8-17.58,9.93-36,13.49-54.36C726.82,311.84,733.11,281.92,729.63,250.78ZM568.51,35.88c3.83-6.42,9.51-10.8,16-14.25,11.54-6.17,24.16-7.49,36.94-8.14,20.06,1,39.21,4.8,54.85,18.56,9.1,8,14.54,17.69,11.15,30.46-1.84,6.93-6.63,11.7-12,15.77-8.95,6.77-19.32,10.2-30.42,11.51-4.48.53-8.18-.87-11.74-3.65-18.93-14.77-39.46-27-60.92-37.74C564.88,44.66,564.31,42.92,568.51,35.88Zm-57,68c2.82-2.2,8.75-5.47,10-4.9,4.54,2,10.73,3.63,9.14,9.77-1.76,6.83-2.94,13.66-4.3,20.15l16.88-14.5c11.14,3.18,11.41,4.71,2.78,12.39-7.13,6.34-14.06,12.82-21.43,19-2.31,1.95-8,4.79-8.36,4.47-3.3-2.54-8.11-5.41-7.92-8.8.37-6.62,3.71-13.64,5.75-20.49a34.29,34.29,0,0,0,.57-4.73l-21.73,18c-11.23-4.44-11.31-4.89-2.15-12.8C497.59,115.53,504.29,109.53,511.5,103.89Zm29.85,248.6c1.95,1.39,4,2.7,6,4.05,5,3.44,4.57,7.15-3.44,11.89l-14.83-8.57c-6.19,3.49-8,6.36-2.47,9.17a71.73,71.73,0,0,1,6.8,4.28c7.25,4.78,6.89,6.12-3.84,12.16-8-5.07-16.37-10.11-24.24-15.54-1.24-.85-1.41-3.87-.25-5.11,11.22-12,22.82-23.9,35.3-36.83,9.24,5.87,18.09,11,25.88,16.92,1.31,1-2,5.41-3.82,10l-18.11-10.62C538.93,347,537.31,349.61,541.35,352.49Zm24.87-27.22c-1.35,2.17-7.18,5.65-7.69,5.39-3.84-2-10.49-2.57-6.76-9,4.94-8.48,9.79-17.06,13.31-25.69,19.59-48,12.57-90.33-13.25-128.37a106.59,106.59,0,0,0-13-16.26c-4.73-4.68-3.16-8.5,6-14.07,7,8.09,14.63,15.45,20.36,23.75,29,42,35.77,88.9,13.08,142A169.84,169.84,0,0,1,566.22,325.27ZM310,231.45c6.11,7.23,12.39,14.36,18.28,21.71,1,1.3,1.65,3.88.56,5.13-7.49,8.49-15.48,16.79-23.32,25.14l-1.3-.45c4.55-6.76,8.8-13.61,13.75-20.26,3.38-4.55,2.72-7.73-.25-11.13-19.21-22-38.18-44.05-57.19-66.13-1.13-1.31-1.86-2.84-3.92-6,5,1.16,7.83,1.62,10.4,2.45,31.43,10.14,63,20.1,94.09,30.67,7.09,2.42,12.74,2.07,19.89-2.34,4.36-2.68,9.28-4.78,12.9-6.6C380.86,214,367.17,225.1,353,235.86c-1.46,1.1-6.81,1-8.57-.06-18.23-11.08-36.09-22.49-54.07-33.79a20.89,20.89,0,0,0-8.05-3.35Q296.17,215.06,310,231.45Zm168.6-74.82S440.27,264.62,269,346.39C301.42,251.18,478.62,156.63,478.62,156.63ZM392.83,276.72c1.46-1.19,6.88-1.52,8.52-.55,15.67,9.26,30.93,18.88,46.29,28.41,5.78,3.59,11.53,7.2,17.85,10.4-17-19.54-33.91-39.07-51.3-59.09l24.29-27.54,1.5.44c-4,6.31-7.7,12.68-12,18.91-3.17,4.6-3.54,8.18-.29,11.93,16.45,18.93,32.57,38.05,48.71,57.15,3.39,4,6.4,8.24,9.58,12.37l-1.82,1.53c-4.56-1.15-9.3-2.07-13.66-3.47-28-8.92-56.06-17.67-83.59-27.11-7.58-2.6-13.6-2.75-21.17,2.71-2.78,2-6.42,3.32-9.37,4.8C368.41,297.31,380.36,286.84,392.83,276.72Zm-161-166.46c23.84-11.16,48.49-20.17,74.35-25.37,65.28-13.13,123-7.86,174.23,12.83,4.08,1.65,7.95,3.53,12,5.16,3.48,1.39,6.07,3,2.52,6.76S488,114,483.43,112c-19.83-8.66-41-15.61-64.7-19.2C360.33,84,301.42,91.36,242,119.3c-6.71,3.16-11,3.15-13.75.46C222.43,115.07,227.08,112.46,231.79,110.26Zm-71.57,32.41c9.14-9.86,17.62-20,26.86-29.82,1.91-2,7.83-4.81,8.77-4.31,4,2.12,10.73,3.93,4.59,10.2s-12.34,12.47-17.66,19.76c8.82-4.36,18.09-8.23,26.34-13.2,9.36-5.64,12.54-.76,16.94,2,4.85,3.07-1.07,6.11-3.55,8.88-5,5.55-10.33,10.94-14.62,17.17q11.21-5.81,22.41-11.59c11.76-6.05,13.18-5.88,19.57,3.24-18.5,8.64-36.28,17.33-54.56,25.07-2.8,1.18-8.56-1.46-11.6-3.44-1.51-1-1.15-4.9.4-6.77,5.21-6.23,11.33-12.14,16-19.23-8.49,4.08-17.29,7.8-25.38,12.35-7.51,4.21-10.82,1.55-15.17-1.1C155,149.14,156.72,146.44,160.22,142.67ZM204.4,401.88c1.21,3.93,3.16,7.63,4.17,11.61,1.4,5.49-.94,11-7.51,15.41-6.94,4.67-15.48,7.45-22.3,4.73-8.27-3.29-15.31-8.06-22.26-12.7-3.45-2.31-.63-5.06,3.39-7.43s7-3.6,10-.63c2.58,2.56,5.31,5.23,8.91,6.9,2.32,1.09,6.32.48,9.56.62.49-2.14,1.77-4.53,1.29-6.39-1-3.77-3.06-7.18-4.31-10.87-2.71-8-.2-13.31,8.49-18.8,6.73-4.25,18.58-5.23,25.58-1.72a63,63,0,0,1,10.73,7c2.7,2.13,6.31,4.44,1.16,8.49-5.42,4.25-9.33,2.49-13.31.29s-8.22-4-12.34-6L203,394A65.66,65.66,0,0,0,204.4,401.88Zm-55.3-229.5c2.93-3.47,6.48-6.71,9.72-10,13,6.17,12.76,6.11,4.8,16.18-48.75,61.68-50.25,118.32-17.21,170.77,7,11.1,17.16,20.76,26.8,30.51,4.16,4.21,4.41,8,.61,13.45-3.43,4.89-6.13,6-10.52,2.34-22.93-19.14-40.66-41-49.77-67.27C95.9,277.56,104.21,225.62,149.1,172.38ZM387.46,582.84c-7.72,0-15.45.31-23.15-.08-8.69-.45-17.34-1.65-26-2.33-24.68-2-48.82-6.72-72.72-13.09a378.18,378.18,0,0,1-73.93-28.19c-22.7-11.51-44.09-25.14-63.5-41.86a288.79,288.79,0,0,1-38-38.89c-15.15-19-27.7-39.7-35.92-62.68C42.65,363.53,33.44,330.64,28,296.86c-4.18-26.11-2.56-52.19,3.78-77.91A23.85,23.85,0,0,1,33,215.43c.15-.36.73-.53,1.7-1.17a20.1,20.1,0,0,1,.18,4.27c-5.66,28.79-5.59,57.55,1.43,86a217.94,217.94,0,0,0,14.25,40.87c16.54,35.16,40.71,64.41,69.07,90.27,20.86,19,44.59,34.25,68.94,48.57a449.53,449.53,0,0,0,55.65,27.34c17.47,7.27,35.25,13.93,53.84,18,1.13.25,2.23.66,3.34,1l-.24,1.51c-4.18-.65-8.4-1.09-12.52-2-32-6.78-63.35-15.32-93.44-28.73a348.46,348.46,0,0,1-68.93-40.23c-15.46-11.7-29.91-24.8-41.82-40.37-2.23-2.91-5-5.38-7.58-8.05l-1.47,1.42c4.38,5.36,8.55,10.92,13.18,16.06a307,307,0,0,0,60.53,52c25.95,16.93,53.38,31.15,82.65,41.63,15.25,5.46,30.37,11.28,45.67,16.6,6.8,2.37,13.91,3.88,20.85,5.86a11.63,11.63,0,0,1,5,2.7c-34.37-4.73-67.33-14.68-99.49-27.68-.38.67-.77,1.34-1.15,2,1.16,1.25,2.1,2.91,3.53,3.68,5,2.72,10.08,5.61,15.43,7.57,23.17,8.51,45.68,18.56,68.37,28.23A208.35,208.35,0,0,0,350.43,579c9.89,1,19.88,1.09,29.82,1.63,2.41.13,4.82.41,7.24.62Zm65.75-164.68c-73.11,31.2-142.2,34.53-208.09,17.33-6.06-1.58-12-3.3-17.77-5.29-10.85-3.79-11.55-7.16-3.41-18.07,9.07,2.93,17.42,6,26.22,8.4,55.35,15.21,114.31,14.8,178-7.13a280.3,280.3,0,0,0,61.54-30.24c11.79-7.64,13.71-7.65,21,1.56A272.21,272.21,0,0,1,453.21,418.16Zm245.27-137a35.28,35.28,0,0,1-1.5,4.22c-.17.39-.7.62-2.64,2.27-.13-3.95-.49-6.56-.25-9.12.38-4,1.51-7.87,1.65-11.83.11-3.06-.81-6.15-1.41-10.13-4.46,2.7-4,6.1-4.27,9.13-.49,6.2-.95,12.4-1.26,18.61-.55,11.29-5.34,21.23-10.1,31.08A216.15,216.15,0,0,1,629,381.29a264.45,264.45,0,0,1-71.14,46.28c-7.51,3.34-15,6.73-22.59,9.88-2.08.87-4.49,1-7.14,1.48-.34-4.67,2.64-5.61,4.74-7,6.23-4.14,12.66-8,18.81-12.2,2.83-2,5.19-4.57,7.75-6.9,2-1.85,3.74-4.16,6-5.5,7.86-4.57,14.42-10.62,20.72-17.05,7.83-8,15.81-15.83,23.71-23.74C620.47,356,627.35,343,633.64,329.68c3.82-8.07,7.74-16.38,9.61-25,3-13.82,4.36-28,6.33-42,.31-2.21-.08-4.52.29-6.71,2.35-14.15-.62-27.58-4.42-41.15-3-10.57-5.24-21.39-10.33-31.11A198.92,198.92,0,0,0,618.75,157c-20.81-28-47.52-49.45-77-67.65-2.49-1.53-4.83-3.3-7.89-5.41,3.53-2.4,5.92-.46,8.32.07s4.61,1.17,6.92,1.77l.89-1.54c-1.47-1.41-2.91-2.86-4.41-4.24-4.27-3.92-3.7-8,1.53-10.38a10.2,10.2,0,0,1,3.61-.85c13.8-.7,27.12.15,40.13,6.25,27.27,12.78,51.49,29.59,71.4,52.12,22.31,25.25,36.34,54.6,41.21,88.17C706.68,237.66,704.3,259.54,698.48,281.18Z"/></g></g></svg>