<svg xmlns="http://www.w3.org/2000/svg" viewBox="0 0 786.96 723.77"><defs><style>.cls-1{fill:#fff;}</style></defs><title>newFlashlight</title><g id="Layer_2" data-name="Layer 2"><g id="Layer_1-2" data-name="Layer 1"><path class="cls-1" d="M679.13,491.7c6.58,3.08,13.13,6.24,19.78,9.17,1.83.8,5.22,1.8,5.75,1.1,1.36-1.81,1.52-4.52,2.15-6.87l-1.77-.77c-.75,1.69-1.51,3.37-2.08,4.66l-23.11-9.08Z"/><path class="cls-1" d="M695.67,515.43c-2-1.28-5.15-.9-7.78-1.17-1-.11-2.26.41-3.18.08Q659.3,505.25,634,496l-1.08,2.08,3.42,6.2,1.36-1.8c23.21,9.13,42.85,23.89,61,41.66,9.75-9.07,7.94-20.47,8.19-31.29C702.75,520.14,702.89,519.92,695.67,515.43Z"/><path class="cls-1" d="M681.49,554.18c-1.78-.51-3.87-.29-5.42-1.12-9.84-5.27-19.31-11.28-30.79-12.7-2.58-.32-5.1-1.76-7.49-3-5.91-3-11.74-6.22-17.6-9.34-.59.89-1.18,1.78-1.76,2.67l65.27,49.35c2.78-4.18,5.58-7.45,7.27-11.21,1.5-3.37,3.63-9.1,2.2-10.55C690.56,555.65,685.54,555.34,681.49,554.18Z"/><path class="cls-1" d="M781.78,468.3c-8.77-9.11-14.44-19.95-19-31.28-5.43-13.45-13.5-23.21-25.9-31.71-1.37-.94-2.73-1.9-4.09-2.84,2.16,2.12,3.38,5.18,3.49,9.08-8-1.49-13.06-6.91-20.15-11.52,5.74-1.43,10.41-1.19,13.81.46-34-23.66-67-48.88-100.46-73.34A59,59,0,0,0,617,319.92c-2.4-1-6.55-1.14-8.24.29-5.25,4.44-9.41,2.12-14.24-.35-4.08-2.09-8.5-4.57-15.15-.43,16.75,12.42,32.53,24.42,44.33,40.71a24.26,24.26,0,0,1-9.85-4.57c-17.7-13-35.49-25.88-52.91-39.23-5-3.84-10.12-6.35-15.63-6.46l1.4-1.35c-5.61-5.34-11.26-10.64-17-15.83a24.31,24.31,0,0,0-7.43-4.28c-5.69-2.21-10.3,1-13.44,4.81-1.33,1.61.7,6.08,1.33,9.23s1.3,6.51,2.22,9.69a9.43,9.43,0,0,0,2.36,4.15c1.29,1.19,3.12,1.81,5.16,2.92-6.52,3.85-24.45-1-29.84-8.27l17.57-.55-47.91-39.19,1.25-2.24,26.95,10.84c-6.84-8.89-14.29-17.36-23-24.32-13.59-10.91-28-20.83-42.07-31.12-24.63-18-49.46-35.69-73.86-54-15.72-11.79-30.83-24.39-46.16-36.7-6.55-5.25-13.14-10.48-19.41-16-16.35-14.54-33.11-28.7-48.54-44.17a44.32,44.32,0,0,0-6.44-5.07l-.8-.44L148,.68A2.85,2.85,0,0,0,146.14,0a174,174,0,0,0-28.78,3.1c-.15,0-.76.17-1.68.4-.68,0-1.37.12-2.07.22A107.46,107.46,0,0,0,97.43,7,157.34,157.34,0,0,0,43.57,36.56,159,159,0,0,0,2.23,88c-3.42,6.76-3.15,13,2.54,18.86,2.11,2.18,3.32,5.67,3.93,8.77,2.78,14.28,3.12,29.36,12.24,41.62,12.93,17.37,25.16,35.48,39.87,51.24a324.83,324.83,0,0,0,46.92,41.09c33.33,24.09,64.15,51.08,93.51,79.59,41.45,40.27,81.48,82,122.17,123,3.07,3.1,23.29,21.81,42.3,38.18,1.82,5.31,3.58,10.65,5.33,16,2.39,7.28,2.95,14.81-.26,21.87-6.17,13.55-2,24.32,7.41,34.57,4.45,4.85,7.84,10.72,11.39,16.33,4.33,6.85,7.43,14.68,12.61,20.76,22.47,26.3,45.44,52.16,68.36,78.07,6.12,6.92,12.05,14.08,21,17.9,2.9,1.23,5.11,4.22,7.46,6.59,4.44,4.5,8.56,9.33,13.17,13.65,5.92,5.54,12.78,9.24,21.26,7.08,19.19-4.9,38.45-3.21,57.64-.52,10.75,1.51,19.93-.93,27.79-8.14a199,199,0,0,1,65.1-40c9.9-3.72,18.34-10,22.36-19.07,7.95-18.06,20.63-32.64,32.1-48.13a113.46,113.46,0,0,1,16.46-17.95c10-8.69,14.53-19.32,14.84-32.3.53-22.12,4.57-43.45,14.09-63.67C787.82,484.94,788.83,475.61,781.78,468.3ZM367.57,309.59c8.21-9,15-19.79,27.76-23A82.07,82.07,0,0,1,367.57,309.59Zm77.56-1.45c17.36,2,26.23,17,40.91,25.73C465.77,333.73,457.59,317.64,445.13,308.14Zm88.29,309.28c-4.43-7.65-3-13.88,2.55-21.8,2.63,4.47,5.44,7.89,6.81,11.82,3,8.58,5.84,17.22,8.7,25.85-2.16,1.58-4.32,3.15-6.5,4.68C541.19,631.07,537.37,624.21,533.42,617.42Zm179-95.92c-2.91,29.87-15,56.07-33.57,79.42q3.51-8.52,7-17c-2.86,1.26-4.2,3.23-5.62,5.14s-2.94,3.83-4.49,5.85c-5.09-6.53-8.75-5.23-16.3,5.94l11.38-5.93,2,1.78c-4.76,6.5-9.52,13-13.76,18.81,3.71,3.42,4.4-8.08,8.87-.54-20.38,25.07-45,44.51-75.84,54.85-7.58,2.55-16.49,1.39-24.79,1.48-6.1.07-12.21-.6-18.4-.19,6.33,6.44,14.62,1.84,21.39,4a57,57,0,0,1-31.31-.9c1-2.07,2-4.12,3-6.16a39.31,39.31,0,0,0,19.52.48q-4.74-8.67-9.41-17.32c1.16-1.78,2.31-3.56,3.48-5.34q2.46,7.33,5,14.62c.93,2.64,4,5.84,6.49,6.36a37.28,37.28,0,0,0,23.37-2.44c2.54-1.17,5.45-1.52,7.92-2.17-6.18-8.22-12.21-15.59-17.52-23.46q-5.2-7.71-10.32-15.48L577.5,613q-4.46,3.63-8.93,7.21c-7.47-11.34-14.88-22.72-22.34-34.06-3.8-5.78.94-17.16,7.75-18.59,7.19-1.51,14.45-10.39,15.53-17.38.63-4.11,2.22-8.81,5-11.72,8.84-9.29,18.32-18,27.81-26.64a15.85,15.85,0,0,1,7.31-3.21c9.6-2,18.84-4.17,21.26-15.79a3.83,3.83,0,0,1,1.94-2.11c13.29-6.9,26.14-14.89,42.29-13.21,5.2.54,11.35.24,15.77-2.1,5-2.64,7.28-1,9.93,2.21C711.42,490.39,714,505.59,712.45,521.5Zm50.87-39.62c-5.53-8.88-5.76-17.27-3.39-27.58C770.27,461.27,771.17,469.42,763.32,481.88Z"/></g></g></svg>