<svg xmlns="http://www.w3.org/2000/svg" viewBox="0 0 111.64 371.6"><defs><style>.cls-1{fill:#fff;}</style></defs><title>Asset 2</title><g id="Layer_2" data-name="Layer 2"><g id="Layer_1-2" data-name="Layer 1"><path class="cls-1" d="M5.21,271.44l.43.15-.43-.25Z"/><path class="cls-1" d="M5.13,277c34.2,10.85,68.45,12.15,102.36,2.49.08-2.25.19-4.51.27-6.77L102,274.36l3.21,1.57-.72,1.12-6.32-1.66,3.5-4.74L46,274.3l3.81.66-.18,1.33-12.12-1c.35-1,.88-2,.73-2.11-4.86-3.85-18.13-2.07-22.11,3.68L6.6,271.59a17.64,17.64,0,0,1-1.41,1.1C5.16,274.11,5.15,275.53,5.13,277ZM66.06,278l.09-.69-3.34-.74c0-.28,0-.56-.05-.85L78.05,275c0,.25.07.51.1.76l-6.8.73.06,1.41H85.2c-16.72,3.45-33.42,4.07-50.12.11Z"/><path class="cls-1" d="M108.32,261.91c-.14-.51-.25-1-.34-1.52a94,94,0,0,1-18.73,3.43c-12,.91-24,2.64-35.9,2.42s-24.4-1-35.94-4.08q-5.92-1.57-11.72-3.56a.75.75,0,0,1-.06.13,6,6,0,0,0-.9,3.65A159.62,159.62,0,0,0,27,267.53c23.18,3.73,46.66,4.69,70-.39q5.83-1.26,11.54-2.87A7.1,7.1,0,0,0,108.32,261.91Z"/><path class="cls-1" d="M106.83,335.21c-.13-2.87,0-5.75,0-8.63,0-3.78-.09-7.56,0-11.35.13-5.62.44-11.24.57-16.87.07-3,.38-6,.19-9.07-.16-2.57-.16-5.15-.11-7.74a153,153,0,0,1-26.27,5.39A197.66,197.66,0,0,1,5.1,279.89c0,.86,0,1.72,0,2.57,0,5.58,0,11.16.11,16.73.11,5,.58,10.06.58,15.08,0,5.89-.42,11.79-.45,17.68,0,2.16-.36,3.93-2.19,5.21a7.65,7.65,0,0,0-.9.9,6,6,0,0,0-2,4.78,44.1,44.1,0,0,1-.1,8.68c-.65,3.89,1,6.37,3.81,8.55,4.49,3.53,9.82,5.29,15.17,6.89,10.94,3.27,22.22,4.39,33.57,4.61,1.66,0,3.32,0,5,0,5,0,10.06-.3,15.06-.67a101,101,0,0,0,25.4-4.85c3.87-1.33,7.6-2.92,10.59-5.81a7.2,7.2,0,0,0,2.39-6.38,27.16,27.16,0,0,1,.1-6.62,10.58,10.58,0,0,0-3.29-9.74A3.77,3.77,0,0,1,106.83,335.21Z"/><path class="cls-1" d="M4.78,33.52c.09,11.06.13,22.12.23,33.17.15,16.76.37,33.52.5,50.28q.18,23.85.22,47.71.09,44.22.12,88.45a180.09,180.09,0,0,0,25.87,5.61c25.62,3.72,50.91,2.7,75.63-3.92,0-11,.13-22,.2-33.07.06-9.9,0-19.8.13-29.7.12-9.41.43-18.82.6-28.23s.32-18.86.43-28.28c.11-10,.14-19.92.27-29.87.12-9.06.38-18.11.49-27.16.18-13.91.27-27.82.42-41.73q.06-5.3.18-10.58l1.57-16.26S105.12.25,60.78,0h-6C9.55.1,2.91,9.94,2.91,9.94l1.8,18.52C4.73,30.15,4.77,31.83,4.78,33.52Z"/></g></g></svg>